<?xml version="1.0" standalone="no"?>
<!DOCTYPE svg PUBLIC "-//W3C//DTD SVG 1.1//EN" "http://www.w3.org/Graphics/SVG/1.1/DTD/svg11.dtd" >
<svg>
<metadata>
Created by FontForge 20120731 at Wed Sep 23 02:46:48 2015
 By Endel
</metadata>
<defs>
<font id="Seasons-Spring" horiz-adv-x="450" >
  <font-face 
    font-family="Seasons-Spring"
    font-weight="400"
    font-stretch="normal"
    units-per-em="1000"
    panose-1="0 0 0 0 0 0 0 0 0 0"
    ascent="750"
    descent="-250"
    x-height="502"
    cap-height="659"
    bbox="-99.8205 -283.267 852.536 870"
    underline-thickness="50"
    underline-position="-50"
    unicode-range="U+0020-2122"
  />
<missing-glyph horiz-adv-x="500" 
 />
    <glyph glyph-name=".notdef" horiz-adv-x="500" 
 />
    <glyph glyph-name=".null" horiz-adv-x="0" 
 />
    <glyph glyph-name="nonmarkingreturn" horiz-adv-x="500" 
 />
    <glyph glyph-name="space" unicode=" " horiz-adv-x="341" 
 />
    <glyph glyph-name="space" unicode="&#xa0;" horiz-adv-x="341" 
 />
    <glyph glyph-name="e" unicode="e" horiz-adv-x="373" 
d="M205 26q48 0 72 20.5t20 43.5q-2 12 -16.5 15t-23.5 -8q-5 -5 -10 -7t-9 -0.5t-4.5 7t5.5 14.5q7 11 20 18t27.5 7t28.5 -7.5t22 -26.5q9 -20 2 -38t-23.5 -32.5t-39 -23.5t-44.5 -12q-60 -7 -104.5 11t-74 54t-43 86t-12.5 107q0 52 14.5 97t42.5 78t67.5 51.5
t90.5 18.5t81 -16.5t46.5 -45t22 -68.5t6.5 -86q-21 -7 -45.5 -9t-60.5 -2q-32 0 -66.5 2.5t-63 12.5t-47.5 28t-19 50q-3 -12 -5.5 -27.5t-4 -31t-2 -29.5t-0.5 -23q0 -28 7 -67t24 -75t46 -61t73 -25zM97 414q12 7 26.5 8t26 -4.5t18 -18.5t4.5 -34q-2 -11 -9.5 -9.5
t-7.5 9.5q-3 9 -9.5 14.5t-13.5 6t-13.5 -3.5t-8.5 -13q-6 -23 16 -37.5t55 -22t68.5 -8.5t56.5 3v38t-8 53t-27.5 48.5t-57.5 24.5q-17 1 -35 -2.5t-34 -11t-28.5 -18t-18.5 -22.5z" />
    <glyph glyph-name="f" unicode="f" horiz-adv-x="353" 
d="M257 765q27 0 49 -9t37 -23.5t23 -34t8 -40.5q0 -39 -20.5 -65t-58.5 -27q-30 -1 -51 12t-24 38q-2 12 2.5 22t11 17.5t15 12.5t14.5 6q17 3 26.5 -3t1.5 -9q-11 -4 -14 -11.5t-1.5 -14.5t7 -12t13.5 -5q16 0 27.5 11.5t11.5 25.5q0 31 -21 51t-53 19q-25 0 -40.5 -11
t-24.5 -29.5t-12 -43t-3 -51.5q0 -8 0.5 -19.5t1 -25t1.5 -26.5t1 -22h132q0 -5 -1.5 -8t-3.5 -6q-2 -4 -4 -6q-9 -8 -23 -9t-31 -1h-69q0 -29 1 -60q0 -26 0.5 -57t0.5 -58q0 -41 -0.5 -84t-2 -84t-5 -77t-8.5 -61q-8 -39 -26 -62.5t-44 -34.5q-21 -9 -40 -8t-32.5 8.5
t-21.5 21t-8 30.5q0 23 15 39.5t38 20.5q15 -1 17 -7t-8 -10q-30 -13 -19 -39q34 -31 60 11q6 9 9.5 33t6 54.5t4 65t2 66t0.5 55.5v34q0 19 -0.5 53.5t-0.5 70.5t-0.5 66.5t-0.5 42.5q0 17 1 43.5t5 56t12 59.5t23 54t38 39t56 15z" />
    <glyph glyph-name="g" unicode="g" horiz-adv-x="438" 
d="M376 504q-7 -2 -12.5 -1t-8 4t0 8t12.5 10q11 6 25.5 6t27 -6.5t20 -21t6.5 -36.5q-2 -22 -15 -34t-30 -17.5t-35 -5t-30 3.5q15 -22 25.5 -54.5t10.5 -55.5q0 -38 -11 -73t-31.5 -61.5t-50.5 -42.5t-69 -16q-24 0 -40.5 7.5t-32.5 12.5q-12 4 -24.5 -0.5t-23 -14
t-16.5 -22.5t-6 -26q0 -19 9.5 -29.5t23.5 -15t29.5 -5t26.5 -0.5q31 0 62 -1t58.5 -3t49.5 -6t34 -10q18 -10 28 -21t15.5 -22t6.5 -21.5t1 -17.5q0 -30 -16.5 -59.5t-56.5 -51.5q-18 -10 -45.5 -15.5t-59 -7t-65 2.5t-62.5 12.5t-51.5 23t-32.5 34.5t-10.5 42.5t7 42
t22 33t34.5 15.5q-30 11 -42 33.5t-8.5 47t21.5 47t49 33.5q-18 8 -31.5 24.5t-22.5 37.5t-13.5 45t-4.5 47q1 38 13.5 73.5t38.5 61.5q28 27 56 42.5t66 15.5q33 0 64 -12.5t60 -25.5q13 -4 27 -6t26 -0.5t20.5 7.5t10.5 18t-7.5 22t-22.5 5zM301 -33q-19 7 -39 9.5t-41 3
t-41 -0.5t-39 -1q2 -3 7 -7.5t10 -12t7.5 -17.5t0.5 -23q-3 -17 -13.5 -27.5t-37.5 -8.5q-14 2 -15.5 10t7.5 10q6 1 8.5 6t1.5 13t-8 12.5t-15.5 4.5t-16.5 -3t-12 -10q-8 -14 -7 -29t20 -32q16 -15 47.5 -25.5t67 -14t68.5 0t54 16.5q15 9 25 29t10 37q0 22 -17 38t-32 22
zM209 141q33 0 54 14.5t33 37t16.5 51t4.5 57.5q0 26 -7 55t-21.5 53.5t-37 41t-53.5 16.5q-29 0 -51.5 -13.5t-38 -36t-23.5 -50.5t-8 -57q0 -26 10 -56t27.5 -55t41.5 -41.5t53 -16.5z" />
    <glyph glyph-name="h" unicode="h" horiz-adv-x="534" 
d="M529 77q14 -16 11.5 -37.5t-15.5 -33.5q-10 -9 -26.5 -12.5t-33.5 -1t-32.5 12t-23.5 25.5q-12 22 -13 46t2.5 49.5t8.5 51.5t5 52q0 18 1 43t-1 51.5t-8 51.5t-20 43t-37.5 26t-59.5 1q-20 -4 -43 -15.5t-43 -23.5q-24 -15 -47 -32v-52v-135q0 -23 1.5 -63.5t3.5 -84
t3.5 -82.5t1.5 -58q-8 4 -18 20t-19.5 34t-16.5 35t-9 25q-6 25 -9 49t-1 53q6 78 8 167t2 174q0 43 1 95t-3.5 99.5t-18 83.5t-41.5 48q-17 7 -35 3.5t-25 -13.5q-6 -10 -4 -21t8 -18t14.5 -7t14.5 12t11 12.5t8 -6t2 -19.5t-7 -29q-3 -8 -11.5 -13.5t-19.5 -7.5t-23 0.5
t-23 11.5q-17 14 -23 34t-3 44q2 18 12.5 31t25.5 22t31.5 13t31.5 4q42 0 67 -14.5t38.5 -39t18.5 -58t6 -71.5q1 -19 1 -54.5v-73t-0.5 -71t-0.5 -48.5q30 26 65 46q30 17 69 32t82 15q32 0 46.5 -14.5t25.5 -38.5q26 -61 26 -138q0 -39 -6.5 -82t-11 -81t-3.5 -66t16 -37
q6 -4 14 -5t14.5 1.5t11 7.5t3.5 13q0 2 -3 6.5t-6.5 9t-6 8.5t-2.5 6q0 6 4 8t10 0t13.5 -7t13.5 -12z" />
    <glyph glyph-name="i" unicode="i" horiz-adv-x="237" 
d="M203 116q0 -73 1.5 -136.5t9.5 -111.5q-12 8 -24 23.5t-22 34.5t-18 40t-12 41q-12 65 -9.5 133.5t4 128.5t-6 106.5t-39.5 67.5q-10 7 -21 7t-19 -8q-15 -17 -6 -30t26 -13q8 0 4 -8.5t-12 -8.5q-33 0 -47 18.5t-12.5 41t16.5 41t39 18.5q25 0 44 -8t33 -21.5t23 -30
t15 -33.5q11 -33 17.5 -62.5t10 -63t4.5 -73.5t1 -93zM94 538q-24 0 -40.5 16t-13.5 50q1 15 8.5 26.5t17.5 19t21 9.5t19 -2q17 -8 22 -21.5t-1 -23.5q-8 -13 -14 -10.5t-5 11.5q1 7 -6.5 11t-14.5 0t-12.5 -17.5t6.5 -27.5q7 -8 14 -10t14 -0.5t13 5t10 6.5q3 2 5.5 -3
t-0.5 -13q-2 -5 -12 -15.5t-31 -10.5z" />
    <glyph glyph-name="j" unicode="j" horiz-adv-x="273" 
d="M151 -188q-24 -35 -50.5 -55t-53 -26t-50 0t-41.5 22q-17 15 -25 37t-6.5 45t12 43.5t28.5 33.5q15 10 32 9.5t32 -7.5t26 -19t14 -25q1 -14 -7.5 -20t-11.5 0q-10 18 -25.5 25.5t-32.5 -11.5q-9 -11 -10 -28t7 -30.5t26 -19.5t46 6q26 11 44.5 41.5t31.5 71.5t20 87.5
t11 89.5t5.5 77t1.5 50q1 89 -12.5 149.5t-45.5 81.5q-16 11 -35 9.5t-23 -20.5q-3 -13 3 -21t13 -7q13 1 15 -7.5t-5 -10.5q-30 -8 -48.5 10t-16.5 49q2 25 17 41.5t37 18.5q22 0 38 -6t28.5 -16t21.5 -22.5t17 -25.5q12 -22 24 -49t21 -65.5t12.5 -92t-2.5 -128.5
q-4 -49 -9 -87.5t-14.5 -71.5t-23.5 -63t-36 -63zM106 538q-24 0 -40.5 16t-13.5 50q1 15 8.5 26.5t17.5 19t21 9.5t19 -2q17 -8 22 -21.5t-1 -23.5q-8 -13 -14 -10.5t-5 11.5q1 7 -6.5 11t-14.5 0t-12.5 -17.5t6.5 -27.5q7 -8 14 -10t14 -0.5t13 5t10 6.5q3 2 5.5 -3
t-0.5 -13q-2 -5 -12 -15.5t-31 -10.5z" />
    <glyph glyph-name="k" unicode="k" horiz-adv-x="493" 
d="M403 88q-6 2 -5.5 8.5t9.5 8.5q9 1 20 -3t20.5 -13.5t14 -25t0.5 -36.5q-5 -26 -23.5 -33.5t-41.5 -7.5q-25 -2 -46 11t-40 35.5t-37 51.5t-37 59.5t-40 59.5t-46 51q0 -94 4.5 -187.5t6.5 -190.5q-8 6 -19 20.5t-22 32.5t-19.5 37.5t-12.5 34.5q-3 8 -3 40.5t1 80
t3 103.5t4 110.5t3.5 103t1.5 79.5v135q0 12 -2.5 28t-8 32.5t-13.5 31.5t-20 24q-17 14 -41 15t-35 -11q-7 -8 -6.5 -19t6 -19.5t13.5 -9.5t17 11q8 12 14 11.5t8.5 -7.5t1.5 -18.5t-7 -22.5q-11 -21 -28 -25.5t-33.5 2t-29 22t-14.5 34.5q-5 43 18 69.5t65 30.5
q39 3 68.5 -14.5t49.5 -47.5t30 -67t10 -72q0 -27 -1.5 -73t-4 -96.5t-4 -99t-1.5 -79.5q8 8 31.5 29t50.5 46t52.5 49t38.5 39q11 13 18.5 27.5t11 28.5t2 26t-9.5 20q-8 7 -21.5 8t-21.5 -8q-7 -8 -6.5 -14.5t2.5 -11t2.5 -7.5t-7.5 -4q-11 -1 -16 13t-3 31q3 26 21 37.5
t43 8.5q30 -3 44 -19.5t17.5 -37.5t-2 -42t-14.5 -34q-5 -7 -15.5 -18.5t-24.5 -25.5t-29.5 -30t-31.5 -31q-37 -36 -81 -78q12 -11 32 -42t42 -67t44.5 -70.5t40.5 -52.5q7 -8 17 -11.5t19 -4t16 2.5t9 9q6 20 0.5 27.5t-19.5 11.5z" />
    <glyph glyph-name="l" unicode="l" horiz-adv-x="204" 
d="M135 219q0 -25 1.5 -67.5t3.5 -87.5t3.5 -85.5t1.5 -62.5q-40 40 -54.5 94.5t-14.5 111.5q0 73 5 157.5t5 165.5q0 37 -0.5 84t-4 93.5t-11.5 86t-23 60.5q-5 7 -15.5 14t-23 10.5t-25 2t-20.5 -11.5q-13 -16 -8 -31t21 -17q11 -2 13 5.5t10 15.5q7 6 13 -7t2 -28
q-5 -15 -17 -24.5t-27 -11.5t-30 4.5t-25 23.5q-17 28 -14.5 51.5t16.5 40.5t37.5 26.5t50.5 11.5q39 2 65 -13.5t41.5 -41.5t22.5 -58.5t9.5 -63.5t2 -57t-0.5 -38q0 -81 -5 -172t-5 -181z" />
    <glyph glyph-name="m" unicode="m" horiz-adv-x="873" 
d="M810 100q8 0 19 -8t17.5 -21t6 -30t-16.5 -35q-11 -13 -31 -16t-40 3t-36 21t-20 38q-6 34 -3.5 72.5t7 77.5t7 76t-1.5 70q-6 42 -25 69t-60 31q-21 2 -41 -4t-38 -15.5t-34 -20.5t-28 -18v-67v-80t-0.5 -85t-0.5 -80.5v-67v-44.5q-8 5 -18.5 19.5t-20 31.5t-16.5 33
t-7 24q-2 39 3 88.5t5 105.5q0 21 1 55t-5.5 65.5t-24 54t-53.5 21.5q-27 -1 -56 -16t-54 -34q-29 -22 -56 -49q0 -54 -0.5 -106.5t-0.5 -108.5v-55.5t0.5 -74t0.5 -72v-49.5q-8 6 -19 20t-21 31.5t-16.5 34.5t-6.5 29v53q0 54 3.5 105.5t3.5 98.5q0 15 0.5 45t-2.5 63
t-11 62.5t-25 42.5q-9 7 -18 3.5t-17 -11.5q-4 -8 -3 -15.5t4.5 -13.5t8.5 -9.5t9 -3.5q8 0 8 -5t-8 -7q-32 -7 -47 9.5t-15 39.5t15 43.5t42 20.5q28 0 49.5 -10.5t36 -29t22 -43t7.5 -51.5q4 8 22 24.5t43 33.5t53.5 29t53.5 11q17 -1 30.5 -2.5t26.5 -8.5t28 -22.5
t36 -43.5q93 75 183 78q37 1 59 -18t33.5 -49t15 -67t4.5 -71q0 -15 -4 -47t-9 -68t-7.5 -67.5t0.5 -44.5q5 -17 15.5 -26.5t26.5 -5.5q15 4 17.5 15t-5.5 21q-11 11 -14 19.5t13 8.5z" />
    <glyph glyph-name="n" unicode="n" horiz-adv-x="547" 
d="M496 113q13 5 29 -4.5t26 -26.5t9 -37.5t-23 -36.5q-21 -16 -45.5 -15t-46 13.5t-36.5 34t-18 48.5t1.5 66.5t8.5 82t5 84t-10 73t-36.5 48t-73.5 10.5q-20 -5 -43 -18t-43 -27q-24 -17 -47 -37q1 -35 1 -63.5v-55t-0.5 -53t-0.5 -56.5v-248q-8 6 -19 17.5t-20.5 26
t-16 32t-6.5 37.5q0 64 4.5 127.5t4.5 131.5q0 31 -0.5 61.5t-3.5 57t-9 47t-18 32.5q-7 8 -22.5 13t-29.5 -6q-8 -7 -9 -14.5t1.5 -13.5t7 -10t7.5 -4q8 0 11.5 -9t-6.5 -11q-14 -2 -25.5 4.5t-20 17t-12 24t-1.5 26.5q4 20 22.5 34.5t38.5 14.5q35 0 57 -9t35 -26
t19 -40.5t11 -53.5q3 3 23 21t50 37.5t67.5 34t76.5 10.5q36 0 56.5 -19t29.5 -47.5t9.5 -63.5t-2.5 -66q-2 -20 -8.5 -51.5t-11.5 -65t-6.5 -64t5.5 -46.5q2 -6 8 -13.5t14 -14t17 -9.5t18 0q14 6 18.5 13.5t3 15t-6 13t-8.5 7.5q-8 4 -11.5 10.5t1.5 8.5z" />
    <glyph glyph-name="o" unicode="o" 
d="M388 429q12 -15 20.5 -37.5t14.5 -48t9 -52t3 -49.5q0 -43 -13 -87.5t-39.5 -81t-66.5 -59.5t-94 -23q-27 0 -55.5 7.5t-54 21.5t-46.5 33t-33 43q-16 31 -23.5 67t-7.5 68q0 58 13 107.5t40.5 86t71 57t104.5 20.5q55 0 94 -20.5t63 -52.5zM335 85q14 27 23 67.5
t10.5 84t-5 84t-23.5 69.5q-23 38 -50.5 59.5t-62.5 21.5q-16 0 -25.5 -6t-14 -14.5t-6 -18t-1.5 -17.5q0 -14 13 -19.5t24 1.5q7 4 8.5 13.5t2.5 14.5q2 12 12 13t13 -15q1 -6 1.5 -15.5t-2 -19t-9 -18t-18.5 -13.5q-20 -9 -41 -3.5t-35.5 20.5t-18 38t11.5 49
q-25 -10 -40 -29.5t-23.5 -44.5t-11 -52t-2.5 -52q0 -40 6.5 -84t24.5 -82t50.5 -64.5t84.5 -30.5q32 0 60.5 16t43.5 47z" />
    <glyph glyph-name="p" unicode="p" horiz-adv-x="527" 
d="M387 94q12 32 21.5 69t9.5 76t-6 83t-25 74q-20 33 -54 52.5t-81 19.5q-16 0 -31 -5t-27 -13t-21 -17t-13 -17v-333q17 -34 50.5 -48t69 -11t66 21.5t41.5 48.5zM100 393q-1 20 -3 39.5t-13 25.5q-12 7 -24 1t-13 -23q0 -6 2.5 -10t6.5 -7.5t6.5 -6.5t2.5 -6
q-2 -13 -15 -8t-26 19q-14 16 -11.5 37.5t15.5 33.5q10 9 26.5 12.5t34.5 -0.5t35 -14.5t26 -29.5q4 4 13.5 11t23.5 14.5t33 13t42 5.5q55 0 96.5 -26t70.5 -68q26 -38 39 -90.5t13 -107.5q0 -47 -9.5 -85.5t-32.5 -70.5t-59.5 -47t-75.5 -15q-56 0 -92.5 16t-51.5 39v-40
v-51t-1 -55t-3 -52q-2 -29 -12 -55t-28 -44.5t-43.5 -26.5t-58.5 -1q-43 9 -60 34t-15.5 51.5t16.5 48t36 24.5q19 3 31.5 -1.5t19.5 -13t9.5 -18t1.5 -17.5q-2 -21 -9.5 -22t-16.5 16q-3 6 -10 4.5t-13 -7t-9.5 -13.5t0.5 -16q8 -16 19.5 -21t26.5 -5q12 1 22 6t17.5 17
t12 31t4.5 48q0 5 0.5 43t1 93t1 119t0.5 120.5v98.5v53z" />
    <glyph glyph-name="q" unicode="q" horiz-adv-x="539" 
d="M368 458q9 19 25.5 29.5t34 14.5t33.5 0.5t26 -12.5q13 -12 15.5 -33.5t-11.5 -37.5q-13 -14 -26 -19t-15 8q0 3 2.5 6t6.5 6.5t6.5 7.5t2.5 10q-1 17 -12 23.5t-23 -0.5q-11 -6 -13.5 -26t-4.5 -40q-1 -8 -1.5 -34t-1.5 -63.5t-2 -83.5t-1 -94.5t0.5 -95t2 -86
t4.5 -67.5t8 -39q7 -17 19 -28t26.5 -16t29.5 -3t29 13q10 8 16.5 20.5t8.5 26.5t-1 28t-11 25q-7 10 -17 14.5t-20 3.5t-17 -6t-7 -14q0 -4 -1.5 -10t-3.5 -11t-5.5 -7.5t-7.5 2.5q-11 12 -11 27.5t6 30t17 25t23 13.5q27 6 47.5 -4t34.5 -28t21 -39t7 -37q0 -19 -10 -40.5
t-25.5 -39.5t-36 -29.5t-42.5 -11.5q-40 1 -66 17t-40.5 42t-20.5 59.5t-7 69t0.5 70t1.5 63.5q-11 -12 -25 -23t-31.5 -19.5t-39.5 -13.5t-49 -5q-42 0 -74 18.5t-54.5 49t-34 69t-11.5 79.5q0 54 12.5 106.5t38.5 88.5q29 42 70 68t96 26q30 0 58 -11.5t51 -32.5zM259 27
q32 4 55.5 21.5t46.5 41.5v339q-4 4 -13 11t-21.5 14t-27.5 12t-30 5q-40 0 -76.5 -20.5t-56.5 -52.5q-18 -29 -25 -68t-7 -86q0 -37 7.5 -77.5t25 -73t47.5 -52t75 -14.5z" />
    <glyph glyph-name="r" unicode="r" horiz-adv-x="398" 
d="M361 459q21 -33 16 -66t-26 -52q-13 -11 -30 -17.5t-34.5 -6.5t-33.5 7t-27 23q-8 12 -8 26.5t7 27t19 21t28 8.5q14 0 20.5 -8t-1.5 -8q-7 0 -11.5 -5t-6 -11.5t0.5 -13t8 -9.5q14 -8 30 -2.5t21 28.5q3 11 1 22.5t-8 21t-16.5 16.5t-25.5 8q-39 3 -62.5 -22t-42.5 -64
q0 -8 0.5 -20.5t1 -39t1 -72t0.5 -120.5v-48.5t1 -71t3 -71t5 -48.5q-7 0 -17 13t-20.5 30.5t-19 36t-12.5 29.5v60q0 17 2 49t4.5 71t4 81t0 79.5t-7 66.5t-16.5 41q-13 14 -31 14.5t-26 -14.5q-7 -14 -1 -27.5t22 -13.5q7 0 5.5 -6.5t-8.5 -6.5q-15 -5 -27.5 -0.5
t-20.5 13.5t-11.5 22t-1.5 25q4 23 18.5 36.5t32.5 16.5q22 4 40.5 -2t33 -18t24.5 -28.5t13 -35.5q9 37 34.5 56.5t54.5 23t57.5 -8.5t43.5 -36z" />
    <glyph glyph-name="s" unicode="s" horiz-adv-x="347" 
d="M116 315q18 -15 55 -31t74.5 -36t67.5 -45t35 -56q4 -24 0.5 -42t-12.5 -32.5t-21.5 -26t-26.5 -21.5q-28 -21 -64 -31t-73 -11q-32 0 -58.5 8t-46 23t-30 36.5t-10.5 48.5t11.5 45.5t29 28.5t37.5 11t37 -6t28.5 -22.5t11.5 -39.5q0 -10 -5.5 -17t-13 -12t-14.5 -7.5
t-10 -3.5q-5 -2 -18 -0.5t-16 9.5q-2 4 1.5 6.5t8 4t9 4t6.5 6.5q3 6 -1 13.5t-11 12.5t-16.5 4.5t-18.5 -10.5q-12 -14 -8.5 -36t19.5 -38q8 -8 19.5 -15.5t26.5 -12.5t32.5 -6.5t37.5 2.5q24 4 42 15.5t30.5 28t18.5 36t6 39.5q-4 28 -34 50t-69 41t-79 34.5t-62 30.5
q-17 11 -28 30.5t-10.5 43.5t15.5 50t51 50q24 16 55.5 23.5t63.5 7.5q41 0 73 -18t44 -39q8 -14 12.5 -31.5t2 -35.5t-14 -34t-34.5 -26q-11 -5 -23.5 -4.5t-24 5t-21 13t-13.5 21.5q-6 18 0.5 35.5t14.5 19.5q11 3 13.5 -1.5t0.5 -9.5q-6 -14 6 -27q4 -5 11.5 -6t16 1.5
t15 8.5t9.5 15q6 22 -11 42.5t-40 30.5q-8 3 -28.5 6t-44.5 0t-46.5 -15.5t-33.5 -39.5q-8 -19 -5.5 -33.5t10 -26t18.5 -20.5t20 -16z" />
    <glyph glyph-name="t" unicode="t" horiz-adv-x="391" 
d="M347 180q13 -11 23 -26.5t14.5 -33.5t2.5 -37t-12 -35q-10 -15 -32 -33.5t-54 -18.5q-20 0 -36 1.5t-29 6t-24.5 12.5t-23.5 20q-16 16 -24.5 44t-12.5 56t-4.5 51.5t-0.5 31.5v161v39.5t-0.5 56.5t-2 64.5t-4.5 64.5t-8 55.5t-13 38.5q-11 19 -28.5 29.5t-31.5 3.5
q-20 -11 -13 -27t31 -24q4 -4 3 -7t-5 -5t-9 -2.5t-9 0.5q-32 8 -43.5 31.5t-6 46.5t27.5 37.5t58 4.5q30 -8 48.5 -26.5t29.5 -43t16 -55t7 -62.5q1 -12 2 -29.5t2 -34.5q1 -19 2 -39h86h53q0 -8 -3 -12t-8 -9q-6 -6 -21 -8.5t-31 -2.5q-17 0 -38.5 5.5t-37.5 5.5v-300
q-1 -31 1.5 -57t13 -45t30 -29.5t51.5 -10.5q12 0 25.5 7.5t24 19.5t13.5 27.5t-6 31.5q-11 19 -39 19q-9 0 -13 -6.5t-4 -14.5t4.5 -14.5t12.5 -6.5q7 0 1 -7.5t-21 -5.5q-22 3 -36.5 20.5t-14.5 40.5q0 16 13 28t31.5 17t38.5 3t34 -13z" />
    <glyph glyph-name="u" unicode="u" horiz-adv-x="526" 
d="M34 393q-13 -5 -29 4.5t-26 26.5t-9 37t23 37q21 16 45.5 15t46 -13.5t36.5 -34t18 -48.5t-1.5 -66.5t-8.5 -82t-5 -84t10 -73t36.5 -48.5t73.5 -10q19 4 42.5 17.5t43.5 27.5q24 17 47 37q-1 35 -1 63.5v55t0.5 53t0.5 56.5v248q8 -6 19 -17.5t20.5 -26t16 -32.5
t6.5 -37q0 -64 -4.5 -127.5t-4.5 -131.5q0 -31 0.5 -61.5t3.5 -57t9 -47t18 -32.5q7 -8 22.5 -13t29.5 6q8 7 9 14.5t-1.5 13.5t-7 10t-7.5 4q-8 0 -11.5 9t6.5 11q14 1 25.5 -5t20 -16.5t12 -24t1.5 -26.5q-4 -20 -22.5 -34t-38.5 -15q-34 -1 -55.5 8t-35 26t-20.5 41
t-11 54q-3 -3 -23 -21t-50 -37.5t-67.5 -34t-76.5 -10.5q-36 0 -56.5 19t-29.5 47.5t-9.5 63t2.5 66.5q2 20 8.5 51.5t11.5 65t6.5 63.5t-5.5 47q-2 6 -8 13.5t-14 14t-17 9.5t-18 0q-14 -6 -18.5 -13.5t-3 -15t6 -13.5t8.5 -7q8 -4 11.5 -10.5t-1.5 -8.5z" />
    <glyph glyph-name="v" unicode="v" horiz-adv-x="526" 
d="M413 396q6 25 20.5 51.5t31.5 49.5t34 41t28 26q-4 -36 -17.5 -81.5t-31 -93t-36 -91t-33.5 -74.5q-27 -58 -51 -120t-43 -134q-33 8 -56.5 29t-39.5 45q-20 40 -30.5 91.5t-20.5 104.5t-24 103t-41 88q-10 14 -23.5 20t-25.5 4.5t-20 -10t-6 -24.5q3 -13 10.5 -16
t15 -2.5t12 0.5t2.5 -6q-4 -11 -16 -15.5t-29 -2.5q-13 1 -22.5 11t-14 23.5t-4 28.5t8.5 27q9 16 29.5 24.5t44.5 7t48.5 -14t41.5 -38.5q12 -18 20.5 -41t15.5 -48.5t13.5 -51.5t14.5 -50q16 -57 34.5 -112t50.5 -111q16 55 32 107t30.5 98t26.5 85.5t20 71.5z" />
    <glyph glyph-name="w" unicode="w" horiz-adv-x="712" 
d="M531 417q-36 -1 -55 23.5t-10 69.5q4 23 17.5 36t27.5 19.5t26.5 8t15.5 1.5q18 1 36 -7t33 -23t27.5 -35t20.5 -42q11 -33 21 -80t14 -99t0 -103.5t-21 -93.5t-48.5 -68.5t-82.5 -28.5q-18 -1 -40.5 2.5t-43 12t-36.5 21.5t-22 31q-4 -18 -15.5 -30.5t-28 -20.5
t-35.5 -12t-37 -4q-11 0 -26.5 0.5t-33.5 4t-36.5 11.5t-36.5 22q-14 15 -23.5 30t-15 34t-7.5 41.5t-2 52.5q0 34 1.5 76t-0.5 80.5t-10.5 68.5t-29.5 41q-6 3 -20 1t-20 -17q-5 -13 4.5 -22t18.5 -10q5 0 6 -3t-1 -6.5t-6 -6.5t-7 -3q-29 -3 -42.5 13.5t-12.5 38.5
t16.5 40.5t45.5 18.5q31 0 53.5 -13.5t36 -37t19.5 -54.5t5 -66q-1 -20 -2 -50.5t0.5 -65t7 -69t18.5 -62t35 -44t56 -15.5q31 1 50 12.5t30 30t16.5 42t8.5 49.5q0 29 -2 56l-4 54t-2 55t3 58q32 -34 39 -61t4.5 -57t-5 -68t9.5 -94q4 -19 16.5 -33t29.5 -23t36 -13t36 -2
q38 4 60.5 46.5t30.5 110.5q2 16 3.5 47.5t0.5 70t-5.5 79.5t-15 74t-28 53.5t-44.5 19.5q-17 -1 -25.5 -12.5t-10.5 -20.5q-1 -7 2.5 -13.5t9 -10t11.5 -4.5t9 4q6 10 10.5 13.5t7 2t4 -6t1.5 -11.5t-1.5 -16t-6.5 -17.5t-13.5 -15t-20.5 -6.5z" />
    <glyph glyph-name="x" unicode="x" horiz-adv-x="465" 
d="M374 114q23 13 39.5 9t27 -16t15 -27.5t2.5 -26.5q-5 -32 -25.5 -44.5t-51.5 -12.5q-15 0 -31.5 7t-32.5 18t-29.5 24t-22.5 25q-9 11 -18 26.5t-17.5 33t-15 35.5t-10.5 33q-23 -23 -38 -50.5t-29.5 -54t-31 -50.5t-43.5 -40q-4 -4 -12.5 -7.5t-18.5 -6.5t-19 -4.5
t-13 -1.5q20 27 52.5 69t64.5 82q37 47 78 96q-6 22 -11 48.5t-12.5 54.5t-19 55.5t-31.5 51.5q-14 17 -30 19.5t-28 -3t-18 -15.5t-1 -17q10 -14 17.5 -18.5t16.5 0.5q7 3 7 -5t-10 -13q-14 -8 -28 -9t-29 13q-14 12 -21.5 32.5t10.5 47.5q16 24 37.5 29.5t44 0.5t43 -18.5
t32.5 -28.5q24 -29 44 -80t34 -109q7 7 17.5 20t21 28t21.5 31.5t20 30.5q13 21 21.5 38.5t13.5 31t8.5 23.5t7.5 18q4 12 16 24.5t25.5 23t25.5 18.5t17 10q2 -18 -9 -47t-27 -59t-32.5 -55t-25.5 -36q-7 -8 -20.5 -24t-29.5 -34.5t-32 -36t-27 -28.5q15 -48 32.5 -91
t46.5 -86q11 -16 27 -21t29.5 -1.5t20.5 13.5t1 25q-1 8 -10.5 13t-19.5 2q-8 -2 -12.5 4.5t6.5 12.5z" />
    <glyph glyph-name="y" unicode="y" horiz-adv-x="616" 
d="M449 426q5 17 22 41t36 45q21 25 47 51q-7 -67 -32 -136t-56 -138.5t-61.5 -139.5t-48.5 -139q-13 -50 -32 -91t-41 -73t-44.5 -54.5t-41.5 -34.5q-43 -26 -78 -27.5t-61.5 11.5t-44 35t-25.5 45q-8 22 -4.5 45t15 43t29.5 33.5t40 15.5q18 2 32.5 -6.5t24.5 -22
t13.5 -29.5t0.5 -28q-6 -14 -16 -15t-10 6q0 20 -10 34.5t-34 5.5q-14 -5 -22.5 -21t-9 -35.5t10 -38.5t35.5 -30q32 -14 59 -6t49 28.5t39.5 50.5t30 58.5t20 52.5t11.5 34q-16 15 -28.5 30.5t-20.5 30.5q-20 40 -31.5 96.5t-23 113.5t-27.5 106t-44 75q-11 8 -22.5 8.5
t-20.5 -5t-13.5 -15t-0.5 -21.5q3 -8 8 -11t9.5 -3t9.5 1.5t8 2.5q4 1 6 -3t-2 -9.5t-13.5 -10.5t-27.5 -4q-15 1 -25.5 8.5t-16 19.5t-6 26t5.5 27q9 21 36 34.5t65 5.5q23 -5 41 -24t32.5 -46t25.5 -59t19.5 -62.5t15 -56t11.5 -39.5q13 -53 30.5 -93.5t41.5 -84.5
q15 56 32 111q14 48 30.5 101.5t32.5 98.5q3 8 4 14t2.5 14.5t4.5 20.5t9 32z" />
    <glyph glyph-name="z" unicode="z" horiz-adv-x="413" 
d="M278 105q-5 15 -2.5 28t9.5 23t17 16.5t20 8.5q13 3 28.5 0t28 -12.5t21.5 -26.5t11 -42q2 -32 -7 -52t-28 -31.5t-47 -16.5t-64 -5q-66 -1 -130.5 3t-120.5 4q24 59 56 114.5t67 109.5t71 107t68 108l10 21q-26 5 -54.5 9t-56 5t-50.5 -2t-38 -11q-18 -10 -24.5 -22.5
t-6 -24.5t6 -22t12.5 -14q11 -7 22.5 -3.5t11.5 19.5q0 8 -3.5 16t5.5 13q7 4 13 -0.5t10.5 -13t5.5 -20.5t-3 -23q-3 -9 -11 -19t-20 -16t-28.5 -6t-36.5 11q-13 7 -22.5 18.5t-14 26.5t-2 34t13.5 40q10 18 23 27.5t32.5 13.5t46 4.5t63.5 0.5q42 0 86 0.5t102 0.5
q-12 -30 -29.5 -65.5t-38 -73t-43 -76t-43.5 -74.5q-51 -84 -107 -171q24 -8 58 -12t68 -4t63 5t43 16q17 13 21.5 31.5t-3.5 32.5q-5 9 -12.5 14t-14.5 5.5t-13 -3t-9 -10.5q-3 -8 -2.5 -12t2 -7t2 -5.5t-2.5 -6.5q-6 -8 -16 -1t-14 18z" />
    <glyph glyph-name="a" unicode="a" 
d="M386 98q11 -2 22 -10t17 -20.5t5 -27.5t-13 -30q-9 -11 -20.5 -15t-23 -3.5t-22 3t-17.5 5.5q-19 7 -28.5 22.5t-14.5 32.5q-5 19 -5 41q-4 -27 -18.5 -46.5t-34 -31.5t-41.5 -18t-41 -6q-25 0 -49.5 6.5t-44 20t-32 35t-12.5 51.5q0 36 15 61t39.5 41t56 23.5t64.5 7.5
q11 0 26 -2t29.5 -5.5t27 -7.5t20.5 -8q8 38 11 73.5t3 51.5q0 44 -16 72t-41 41t-56 12t-62 -15q-14 -6 -24.5 -18t-14 -26t1.5 -27.5t20 -23.5q14 -9 27 -3.5t17 20.5q2 8 -2.5 12.5t-10 7.5t-9 5.5t-0.5 5.5q4 4 16 5t25 -3t23 -14.5t11 -28.5q2 -32 -20.5 -47.5
t-54.5 -15.5q-20 0 -36.5 9t-28 23.5t-16.5 33t-2 38.5q4 25 20 43t37.5 29.5t45.5 17t44 5.5q48 0 76.5 -16.5t48.5 -36.5q42 -42 42 -118q0 -16 -5 -43.5t-11 -59.5t-10.5 -65t-4 -60t8.5 -45t28 -19q11 -1 16.5 3.5t6 10.5t-2 12.5t-6.5 11.5q-5 5 -8 14.5t8 8.5z
M276 136q3 17 6 29.5t6 30.5q-35 7 -72 11t-68.5 -2.5t-52 -27t-21.5 -62.5q-1 -32 10.5 -51.5t27.5 -29t33.5 -11.5t29.5 1q40 10 66.5 38t34.5 74z" />
    <glyph glyph-name="b" unicode="b" horiz-adv-x="554" 
d="M285 500q46 0 85 -21t67 -57t43 -85t15 -105q0 -53 -13.5 -96.5t-39.5 -75t-65.5 -49.5t-90.5 -18q-78 0 -119 29.5t-56 89t-10.5 149t17.5 208.5q4 37 6 84.5t0 94t-9.5 85t-21.5 57.5q-21 28 -48.5 31.5t-42.5 -11.5q-9 -9 -6.5 -23.5t11.5 -20.5q10 -6 15 -3.5
t8.5 8.5t6.5 11t9 3t8 -14t-2 -25.5t-15 -24.5t-32 -11q-19 0 -31.5 9t-20 22t-10 28.5t-0.5 30.5q4 35 34 52t67 18q40 0 66 -17t41.5 -43.5t22.5 -58t9 -61t1.5 -53t-0.5 -32.5q0 -23 -0.5 -38.5t-1.5 -30t-1.5 -30.5t-0.5 -40q5 5 16.5 11t26.5 11t31 8.5t31 3.5z
M289 469q-25 0 -45.5 -7t-34.5 -16q-18 -11 -31 -23q-7 -56 -11 -111q-3 -48 -2.5 -103.5t9.5 -103.5q3 -17 11 -32.5t21 -28.5t29.5 -20.5t36.5 -7.5q52 0 83 19.5t47.5 51t21.5 71t5 80.5q0 44 -8.5 85.5t-25.5 73.5t-43.5 51.5t-62.5 20.5v0z" />
    <glyph glyph-name="c" unicode="c" horiz-adv-x="374" 
d="M225 28q34 2 57 20.5t15 41.5q-5 11 -18 14.5t-22 -7.5q-5 -5 -10 -7t-9 -0.5t-4.5 7t5.5 14.5q7 11 19 18.5t26.5 8t28.5 -7.5t24 -28t4 -37t-19 -30t-29 -21.5t-28 -11.5q-56 -13 -96.5 -5.5t-68 25t-44 39.5t-25.5 37q-14 25 -22.5 59.5t-8.5 64.5q0 55 13 102t39 85
q29 40 71 66.5t104 26.5q21 0 46 -6.5t46.5 -19.5t36.5 -32.5t16 -44.5q0 -16 -4 -32.5t-13.5 -30.5t-24 -23.5t-35.5 -9.5q-22 0 -38 6.5t-26 17.5t-13.5 25t0.5 29q3 12 11.5 19t17.5 10.5t18 4.5t14 0q13 -2 16 -9t-6 -5q-6 1 -11.5 -3t-8 -11t-1 -14.5t10.5 -13.5
t23 -3.5t22 18.5q8 12 6 28.5t-14.5 32.5t-36 27t-58.5 11q-39 0 -68.5 -16t-49.5 -43t-30.5 -63t-10.5 -76q0 -35 5 -78.5t22 -82t49 -63.5t87 -23z" />
    <glyph glyph-name="d" unicode="d" horiz-adv-x="513" 
d="M345 86q-2 61 -2.5 123t-0.5 112v112q-12 11 -25 19q-12 7 -27.5 12.5t-35.5 4.5q-40 -2 -71 -23t-52.5 -53.5t-32.5 -71.5t-11 -77q0 -40 7 -78.5t24.5 -69t47.5 -49t76 -18.5q38 0 63 17t40 40zM351 54q-5 -11 -13.5 -21.5t-21.5 -19t-32 -14t-46 -5.5
q-110 -2 -160.5 62t-50.5 188q0 46 13.5 92.5t41.5 83.5t69.5 60t97.5 23q38 0 61 -11.5t33 -24.5v50t2.5 77t8 84t15.5 71q17 50 54 65t79 7q23 -5 37 -15t21.5 -24t8.5 -30.5t-1 -33.5q-5 -33 -24.5 -46.5t-44.5 -12.5q-23 1 -35 20t-7 37q3 11 10.5 13.5t9.5 -8.5
q1 -5 6 -8t11 -2.5t12.5 6t9.5 17.5q2 7 -1 15.5t-10.5 15t-19.5 9.5t-28 -1q-20 -5 -32.5 -35.5t-14.5 -73.5q-1 -28 -2.5 -62.5t-3 -85t-2 -121.5t0.5 -171q0 -54 1.5 -88.5t3.5 -55.5t6 -30.5t9 -12.5q12 -7 24 -1t13 23q0 6 -2.5 10t-6.5 7.5t-6.5 6.5t-2.5 6q2 13 15 8
t26 -19q14 -16 11.5 -37.5t-15.5 -33.5q-10 -9 -28.5 -12t-38 2t-37 19t-24.5 38z" />
    <glyph glyph-name="trademark" unicode="&#x2122;" horiz-adv-x="833" 
 />
    <glyph glyph-name="quotesinglbase" unicode="&#x201a;" horiz-adv-x="173" 
 />
    <glyph glyph-name="comma" unicode="," horiz-adv-x="124" 
d="M-1 105q7 10 19 13t24 1.5t23 -7.5t17 -15q14 -23 13 -45.5t-15 -36.5q-17 -17 -39 -22.5t-42 5.5q11 7 20.5 12.5t16.5 11t11.5 12.5t4.5 18q0 9 -7.5 18.5t-13.5 9.5q-14 0 -14.5 -9t4.5 -11q5 -3 3.5 -6.5t-7.5 -1.5q-11 6 -20 21.5t2 31.5z" />
    <glyph glyph-name="period" unicode="." horiz-adv-x="148" 
d="M40 88q6 8 16 12t20.5 3.5t20 -5t14.5 -11.5q12 -20 12 -40t-14 -29q-24 -17 -40 -11t-24.5 21t-9.5 33t5 27z" />
    <glyph glyph-name="quotesingle" unicode="'" horiz-adv-x="131" 
d="M17 648q7 10 19 13t24 1.5t23 -7.5t17 -15q14 -23 13 -45.5t-15 -36.5q-17 -17 -39 -22.5t-42 5.5q11 7 20.5 12.5t16.5 11t11.5 12.5t4.5 18q0 9 -7.5 18.5t-13.5 9.5q-14 0 -14.5 -9t4.5 -11q5 -3 3.5 -6.5t-7.5 -1.5q-11 6 -20 21.5t2 31.5z" />
    <glyph glyph-name="glyph35" horiz-adv-x="0" 
 />
    <glyph glyph-name="A" unicode="A" 
d="M386 98q11 -2 22 -10t17 -20.5t5 -27.5t-13 -30q-9 -11 -20.5 -15t-23 -3.5t-22 3t-17.5 5.5q-19 7 -28.5 22.5t-14.5 32.5q-5 19 -5 41q-4 -27 -18.5 -46.5t-34 -31.5t-41.5 -18t-41 -6q-25 0 -49.5 6.5t-44 20t-32 35t-12.5 51.5q0 36 15 61t39.5 41t56 23.5t64.5 7.5
q11 0 26 -2t29.5 -5.5t27 -7.5t20.5 -8q8 38 11 73.5t3 51.5q0 44 -16 72t-41 41t-56 12t-62 -15q-14 -6 -24.5 -18t-14 -26t1.5 -27.5t20 -23.5q14 -9 27 -3.5t17 20.5q2 8 -2.5 12.5t-10 7.5t-9 5.5t-0.5 5.5q4 4 16 5t25 -3t23 -14.5t11 -28.5q2 -32 -20.5 -47.5
t-54.5 -15.5q-20 0 -36.5 9t-28 23.5t-16.5 33t-2 38.5q4 25 20 43t37.5 29.5t45.5 17t44 5.5q48 0 76.5 -16.5t48.5 -36.5q42 -42 42 -118q0 -16 -5 -43.5t-11 -59.5t-10.5 -65t-4 -60t8.5 -45t28 -19q11 -1 16.5 3.5t6 10.5t-2 12.5t-6.5 11.5q-5 5 -8 14.5t8 8.5z
M276 136q3 17 6 29.5t6 30.5q-35 7 -72 11t-68.5 -2.5t-52 -27t-21.5 -62.5q-1 -32 10.5 -51.5t27.5 -29t33.5 -11.5t29.5 1q40 10 66.5 38t34.5 74z" />
    <glyph glyph-name="B" unicode="B" horiz-adv-x="554" 
d="M285 500q46 0 85 -21t67 -57t43 -85t15 -105q0 -53 -13.5 -96.5t-39.5 -75t-65.5 -49.5t-90.5 -18q-78 0 -119 29.5t-56 89t-10.5 149t17.5 208.5q4 37 6 84.5t0 94t-9.5 85t-21.5 57.5q-21 28 -48.5 31.5t-42.5 -11.5q-9 -9 -6.5 -23.5t11.5 -20.5q10 -6 15 -3.5
t8.5 8.5t6.5 11t9 3t8 -14t-2 -25.5t-15 -24.5t-32 -11q-19 0 -31.5 9t-20 22t-10 28.5t-0.5 30.5q4 35 34 52t67 18q40 0 66 -17t41.5 -43.5t22.5 -58t9 -61t1.5 -53t-0.5 -32.5q0 -23 -0.5 -38.5t-1.5 -30t-1.5 -30.5t-0.5 -40q5 5 16.5 11t26.5 11t31 8.5t31 3.5z
M289 469q-25 0 -45.5 -7t-34.5 -16q-18 -11 -31 -23q-7 -56 -11 -111q-3 -48 -2.5 -103.5t9.5 -103.5q3 -17 11 -32.5t21 -28.5t29.5 -20.5t36.5 -7.5q52 0 83 19.5t47.5 51t21.5 71t5 80.5q0 44 -8.5 85.5t-25.5 73.5t-43.5 51.5t-62.5 20.5z" />
    <glyph glyph-name="C" unicode="C" horiz-adv-x="374" 
d="M225 28q34 2 57 20.5t15 41.5q-5 11 -18 14.5t-22 -7.5q-5 -5 -10 -7t-9 -0.5t-4.5 7t5.5 14.5q7 11 19 18.5t26.5 8t28.5 -7.5t24 -28t4 -37t-19 -30t-29 -21.5t-28 -11.5q-56 -13 -96.5 -5.5t-68 25t-44 39.5t-25.5 37q-14 25 -22.5 59.5t-8.5 64.5q0 55 13 102t39 85
q29 40 71 66.5t104 26.5q21 0 46 -6.5t46.5 -19.5t36.5 -32.5t16 -44.5q0 -16 -4 -32.5t-13.5 -30.5t-24 -23.5t-35.5 -9.5q-22 0 -38 6.5t-26 17.5t-13.5 25t0.5 29q3 12 11.5 19t17.5 10.5t18 4.5t14 0q13 -2 16 -9t-6 -5q-6 1 -11.5 -3t-8 -11t-1 -14.5t10.5 -13.5
t23 -3.5t22 18.5q8 12 6 28.5t-14.5 32.5t-36 27t-58.5 11q-39 0 -68.5 -16t-49.5 -43t-30.5 -63t-10.5 -76q0 -35 5 -78.5t22 -82t49 -63.5t87 -23z" />
    <glyph glyph-name="D" unicode="D" horiz-adv-x="513" 
d="M345 86q-2 61 -2.5 123t-0.5 112v112q-12 11 -25 19q-12 7 -27.5 12.5t-35.5 4.5q-40 -2 -71 -23t-52.5 -53.5t-32.5 -71.5t-11 -77q0 -40 7 -78.5t24.5 -69t47.5 -49t76 -18.5q38 0 63 17t40 40zM351 54q-5 -11 -13.5 -21.5t-21.5 -19t-32 -14t-46 -5.5
q-110 -2 -160.5 62t-50.5 188q0 46 13.5 92.5t41.5 83.5t69.5 60t97.5 23q38 0 61 -11.5t33 -24.5v50t2.5 77t8 84t15.5 71q17 50 54 65t79 7q23 -5 37 -15t21.5 -24t8.5 -30.5t-1 -33.5q-5 -33 -24.5 -46.5t-44.5 -12.5q-23 1 -35 20t-7 37q3 11 10.5 13.5t9.5 -8.5
q1 -5 6 -8t11 -2.5t12.5 6t9.5 17.5q2 7 -1 15.5t-10.5 15t-19.5 9.5t-28 -1q-20 -5 -32.5 -35.5t-14.5 -73.5q-1 -28 -2.5 -62.5t-3 -85t-2 -121.5t0.5 -171q0 -54 1.5 -88.5t3.5 -55.5t6 -30.5t9 -12.5q12 -7 24 -1t13 23q0 6 -2.5 10t-6.5 7.5t-6.5 6.5t-2.5 6q2 13 15 8
t26 -19q14 -16 11.5 -37.5t-15.5 -33.5q-10 -9 -28.5 -12t-38 2t-37 19t-24.5 38z" />
    <glyph glyph-name="E" unicode="E" horiz-adv-x="373" 
d="M205 26q48 0 72 20.5t20 43.5q-2 12 -16.5 15t-23.5 -8q-5 -5 -10 -7t-9 -0.5t-4.5 7t5.5 14.5q7 11 20 18t27.5 7t28.5 -7.5t22 -26.5q9 -20 2 -38t-23.5 -32.5t-39 -23.5t-44.5 -12q-60 -7 -104.5 11t-74 54t-43 86t-12.5 107q0 52 14.5 97t42.5 78t67.5 51.5
t90.5 18.5t81 -16.5t46.5 -45t22 -68.5t6.5 -86q-21 -7 -45.5 -9t-60.5 -2q-32 0 -66.5 2.5t-63 12.5t-47.5 28t-19 50q-3 -12 -5.5 -27.5t-4 -31t-2 -29.5t-0.5 -23q0 -28 7 -67t24 -75t46 -61t73 -25zM97 414q12 7 26.5 8t26 -4.5t18 -18.5t4.5 -34q-2 -11 -9.5 -9.5
t-7.5 9.5q-3 9 -9.5 14.5t-13.5 6t-13.5 -3.5t-8.5 -13q-6 -23 16 -37.5t55 -22t68.5 -8.5t56.5 3v38t-8 53t-27.5 48.5t-57.5 24.5q-17 1 -35 -2.5t-34 -11t-28.5 -18t-18.5 -22.5z" />
    <glyph glyph-name="F" unicode="F" horiz-adv-x="353" 
d="M257 765q27 0 49 -9t37 -23.5t23 -34t8 -40.5q0 -39 -20.5 -65t-58.5 -27q-30 -1 -51 12t-24 38q-2 12 2.5 22t11 17.5t15 12.5t14.5 6q17 3 26.5 -3t1.5 -9q-11 -4 -14 -11.5t-1.5 -14.5t7 -12t13.5 -5q16 0 27.5 11.5t11.5 25.5q0 31 -21 51t-53 19q-25 0 -40.5 -11
t-24.5 -29.5t-12 -43t-3 -51.5q0 -8 0.5 -19.5t1 -25t1.5 -26.5t1 -22h132q0 -5 -1.5 -8t-3.5 -6q-2 -4 -4 -6q-9 -8 -23 -9t-31 -1h-69q0 -29 1 -60q0 -26 0.5 -57t0.5 -58q0 -41 -0.5 -84t-2 -84t-5 -77t-8.5 -61q-8 -39 -26 -62.5t-44 -34.5q-21 -9 -40 -8t-32.5 8.5
t-21.5 21t-8 30.5q0 23 15 39.5t38 20.5q15 -1 17 -7t-8 -10q-30 -13 -19 -39q34 -31 60 11q6 9 9.5 33t6 54.5t4 65t2 66t0.5 55.5v34q0 19 -0.5 53.5t-0.5 70.5t-0.5 66.5t-0.5 42.5q0 17 1 43.5t5 56t12 59.5t23 54t38 39t56 15z" />
    <glyph glyph-name="G" unicode="G" horiz-adv-x="438" 
d="M376 504q-7 -2 -12.5 -1t-8 4t0 8t12.5 10q11 6 25.5 6t27 -6.5t20 -21t6.5 -36.5q-2 -22 -15 -34t-30 -17.5t-35 -5t-30 3.5q15 -22 25.5 -54.5t10.5 -55.5q0 -38 -11 -73t-31.5 -61.5t-50.5 -42.5t-69 -16q-24 0 -40.5 7.5t-32.5 12.5q-12 4 -24.5 -0.5t-23 -14
t-16.5 -22.5t-6 -26q0 -19 9.5 -29.5t23.5 -15t29.5 -5t26.5 -0.5q31 0 62 -1t58.5 -3t49.5 -6t34 -10q18 -10 28 -21t15.5 -22t6.5 -21.5t1 -17.5q0 -30 -16.5 -59.5t-56.5 -51.5q-18 -10 -45.5 -15.5t-59 -7t-65 2.5t-62.5 12.5t-51.5 23t-32.5 34.5t-10.5 42.5t7 42
t22 33t34.5 15.5q-30 11 -42 33.5t-8.5 47t21.5 47t49 33.5q-18 8 -31.5 24.5t-22.5 37.5t-13.5 45t-4.5 47q1 38 13.5 73.5t38.5 61.5q28 27 56 42.5t66 15.5q33 0 64 -12.5t60 -25.5q13 -4 27 -6t26 -0.5t20.5 7.5t10.5 18t-7.5 22t-22.5 5zM301 -33q-19 7 -39 9.5t-41 3
t-41 -0.5t-39 -1q2 -3 7 -7.5t10 -12t7.5 -17.5t0.5 -23q-3 -17 -13.5 -27.5t-37.5 -8.5q-14 2 -15.5 10t7.5 10q6 1 8.5 6t1.5 13t-8 12.5t-15.5 4.5t-16.5 -3t-12 -10q-8 -14 -7 -29t20 -32q16 -15 47.5 -25.5t67 -14t68.5 0t54 16.5q15 9 25 29t10 37q0 22 -17 38t-32 22
zM209 141q33 0 54 14.5t33 37t16.5 51t4.5 57.5q0 26 -7 55t-21.5 53.5t-37 41t-53.5 16.5q-29 0 -51.5 -13.5t-38 -36t-23.5 -50.5t-8 -57q0 -26 10 -56t27.5 -55t41.5 -41.5t53 -16.5z" />
    <glyph glyph-name="H" unicode="H" horiz-adv-x="534" 
d="M529 77q14 -16 11.5 -37.5t-15.5 -33.5q-10 -9 -26.5 -12.5t-33.5 -1t-32.5 12t-23.5 25.5q-12 22 -13 46t2.5 49.5t8.5 51.5t5 52q0 18 1 43t-1 51.5t-8 51.5t-20 43t-37.5 26t-59.5 1q-20 -4 -43 -15.5t-43 -23.5q-24 -15 -47 -32v-52v-135q0 -23 1.5 -63.5t3.5 -84
t3.5 -82.5t1.5 -58q-8 4 -18 20t-19.5 34t-16.5 35t-9 25q-6 25 -9 49t-1 53q6 78 8 167t2 174q0 43 1 95t-3.5 99.5t-18 83.5t-41.5 48q-17 7 -35 3.5t-25 -13.5q-6 -10 -4 -21t8 -18t14.5 -7t14.5 12t11 12.5t8 -6t2 -19.5t-7 -29q-3 -8 -11.5 -13.5t-19.5 -7.5t-23 0.5
t-23 11.5q-17 14 -23 34t-3 44q2 18 12.5 31t25.5 22t31.5 13t31.5 4q42 0 67 -14.5t38.5 -39t18.5 -58t6 -71.5q1 -19 1 -54.5v-73t-0.5 -71t-0.5 -48.5q30 26 65 46q30 17 69 32t82 15q32 0 46.5 -14.5t25.5 -38.5q26 -61 26 -138q0 -39 -6.5 -82t-11 -81t-3.5 -66t16 -37
q6 -4 14 -5t14.5 1.5t11 7.5t3.5 13q0 2 -3 6.5t-6.5 9t-6 8.5t-2.5 6q0 6 4 8t10 0t13.5 -7t13.5 -12z" />
    <glyph glyph-name="I" unicode="I" horiz-adv-x="237" 
d="M203 116q0 -73 1.5 -136.5t9.5 -111.5q-12 8 -24 23.5t-22 34.5t-18 40t-12 41q-12 65 -9.5 133.5t4 128.5t-6 106.5t-39.5 67.5q-10 7 -21 7t-19 -8q-15 -17 -6 -30t26 -13q8 0 4 -8.5t-12 -8.5q-33 0 -47 18.5t-12.5 41t16.5 41t39 18.5q25 0 44 -8t33 -21.5t23 -30
t15 -33.5q11 -33 17.5 -62.5t10 -63t4.5 -73.5t1 -93zM94 538q-24 0 -40.5 16t-13.5 50q1 15 8.5 26.5t17.5 19t21 9.5t19 -2q17 -8 22 -21.5t-1 -23.5q-8 -13 -14 -10.5t-5 11.5q1 7 -6.5 11t-14.5 0t-12.5 -17.5t6.5 -27.5q7 -8 14 -10t14 -0.5t13 5t10 6.5q3 2 5.5 -3
t-0.5 -13q-2 -5 -12 -15.5t-31 -10.5z" />
    <glyph glyph-name="J" unicode="J" horiz-adv-x="273" 
d="M151 -188q-24 -35 -50.5 -55t-53 -26t-50 0t-41.5 22q-17 15 -25 37t-6.5 45t12 43.5t28.5 33.5q15 10 32 9.5t32 -7.5t26 -19t14 -25q1 -14 -7.5 -20t-11.5 0q-10 18 -25.5 25.5t-32.5 -11.5q-9 -11 -10 -28t7 -30.5t26 -19.5t46 6q26 11 44.5 41.5t31.5 71.5t20 87.5
t11 89.5t5.5 77t1.5 50q1 89 -12.5 149.5t-45.5 81.5q-16 11 -35 9.5t-23 -20.5q-3 -13 3 -21t13 -7q13 1 15 -7.5t-5 -10.5q-30 -8 -48.5 10t-16.5 49q2 25 17 41.5t37 18.5q22 0 38 -6t28.5 -16t21.5 -22.5t17 -25.5q12 -22 24 -49t21 -65.5t12.5 -92t-2.5 -128.5
q-4 -49 -9 -87.5t-14.5 -71.5t-23.5 -63t-36 -63zM106 538q-24 0 -40.5 16t-13.5 50q1 15 8.5 26.5t17.5 19t21 9.5t19 -2q17 -8 22 -21.5t-1 -23.5q-8 -13 -14 -10.5t-5 11.5q1 7 -6.5 11t-14.5 0t-12.5 -17.5t6.5 -27.5q7 -8 14 -10t14 -0.5t13 5t10 6.5q3 2 5.5 -3
t-0.5 -13q-2 -5 -12 -15.5t-31 -10.5z" />
    <glyph glyph-name="K" unicode="K" horiz-adv-x="493" 
d="M403 88q-6 2 -5.5 8.5t9.5 8.5q9 1 20 -3t20.5 -13.5t14 -25t0.5 -36.5q-5 -26 -23.5 -33.5t-41.5 -7.5q-25 -2 -46 11t-40 35.5t-37 51.5t-37 59.5t-40 59.5t-46 51q0 -94 4.5 -187.5t6.5 -190.5q-8 6 -19 20.5t-22 32.5t-19.5 37.5t-12.5 34.5q-3 8 -3 40.5t1 80
t3 103.5t4 110.5t3.5 103t1.5 79.5v135q0 12 -2.5 28t-8 32.5t-13.5 31.5t-20 24q-17 14 -41 15t-35 -11q-7 -8 -6.5 -19t6 -19.5t13.5 -9.5t17 11q8 12 14 11.5t8.5 -7.5t1.5 -18.5t-7 -22.5q-11 -21 -28 -25.5t-33.5 2t-29 22t-14.5 34.5q-5 43 18 69.5t65 30.5
q39 3 68.5 -14.5t49.5 -47.5t30 -67t10 -72q0 -27 -1.5 -73t-4 -96.5t-4 -99t-1.5 -79.5q8 8 31.5 29t50.5 46t52.5 49t38.5 39q11 13 18.5 27.5t11 28.5t2 26t-9.5 20q-8 7 -21.5 8t-21.5 -8q-7 -8 -6.5 -14.5t2.5 -11t2.5 -7.5t-7.5 -4q-11 -1 -16 13t-3 31q3 26 21 37.5
t43 8.5q30 -3 44 -19.5t17.5 -37.5t-2 -42t-14.5 -34q-5 -7 -15.5 -18.5t-24.5 -25.5t-29.5 -30t-31.5 -31q-37 -36 -81 -78q12 -11 32 -42t42 -67t44.5 -70.5t40.5 -52.5q7 -8 17 -11.5t19 -4t16 2.5t9 9q6 20 0.5 27.5t-19.5 11.5z" />
    <glyph glyph-name="L" unicode="L" horiz-adv-x="204" 
d="M135 219q0 -25 1.5 -67.5t3.5 -87.5t3.5 -85.5t1.5 -62.5q-40 40 -54.5 94.5t-14.5 111.5q0 73 5 157.5t5 165.5q0 37 -0.5 84t-4 93.5t-11.5 86t-23 60.5q-5 7 -15.5 14t-23 10.5t-25 2t-20.5 -11.5q-13 -16 -8 -31t21 -17q11 -2 13 5.5t10 15.5q7 6 13 -7t2 -28
q-5 -15 -17 -24.5t-27 -11.5t-30 4.5t-25 23.5q-17 28 -14.5 51.5t16.5 40.5t37.5 26.5t50.5 11.5q39 2 65 -13.5t41.5 -41.5t22.5 -58.5t9.5 -63.5t2 -57t-0.5 -38q0 -81 -5 -172t-5 -181z" />
    <glyph glyph-name="M" unicode="M" horiz-adv-x="873" 
d="M810 100q8 0 19 -8t17.5 -21t6 -30t-16.5 -35q-11 -13 -31 -16t-40 3t-36 21t-20 38q-6 34 -3.5 72.5t7 77.5t7 76t-1.5 70q-6 42 -25 69t-60 31q-21 2 -41 -4t-38 -15.5t-34 -20.5t-28 -18v-67v-80t-0.5 -85t-0.5 -80.5v-67v-44.5q-8 5 -18.5 19.5t-20 31.5t-16.5 33
t-7 24q-2 39 3 88.5t5 105.5q0 21 1 55t-5.5 65.5t-24 54t-53.5 21.5q-27 -1 -56 -16t-54 -34q-29 -22 -56 -49q0 -54 -0.5 -106.5t-0.5 -108.5v-55.5t0.5 -74t0.5 -72v-49.5q-8 6 -19 20t-21 31.5t-16.5 34.5t-6.5 29v53q0 54 3.5 105.5t3.5 98.5q0 15 0.5 45t-2.5 63
t-11 62.5t-25 42.5q-9 7 -18 3.5t-17 -11.5q-4 -8 -3 -15.5t4.5 -13.5t8.5 -9.5t9 -3.5q8 0 8 -5t-8 -7q-32 -7 -47 9.5t-15 39.5t15 43.5t42 20.5q28 0 49.5 -10.5t36 -29t22 -43t7.5 -51.5q4 8 22 24.5t43 33.5t53.5 29t53.5 11q17 -1 30.5 -2.5t26.5 -8.5t28 -22.5
t36 -43.5q93 75 183 78q37 1 59 -18t33.5 -49t15 -67t4.5 -71q0 -15 -4 -47t-9 -68t-7.5 -67.5t0.5 -44.5q5 -17 15.5 -26.5t26.5 -5.5q15 4 17.5 15t-5.5 21q-11 11 -14 19.5t13 8.5z" />
    <glyph glyph-name="N" unicode="N" horiz-adv-x="547" 
d="M496 113q13 5 29 -4.5t26 -26.5t9 -37.5t-23 -36.5q-21 -16 -45.5 -15t-46 13.5t-36.5 34t-18 48.5t1.5 66.5t8.5 82t5 84t-10 73t-36.5 48t-73.5 10.5q-20 -5 -43 -18t-43 -27q-24 -17 -47 -37q1 -35 1 -63.5v-55t-0.5 -53t-0.5 -56.5v-248q-8 6 -19 17.5t-20.5 26
t-16 32t-6.5 37.5q0 64 4.5 127.5t4.5 131.5q0 31 -0.5 61.5t-3.5 57t-9 47t-18 32.5q-7 8 -22.5 13t-29.5 -6q-8 -7 -9 -14.5t1.5 -13.5t7 -10t7.5 -4q8 0 11.5 -9t-6.5 -11q-14 -2 -25.5 4.5t-20 17t-12 24t-1.5 26.5q4 20 22.5 34.5t38.5 14.5q35 0 57 -9t35 -26
t19 -40.5t11 -53.5q3 3 23 21t50 37.5t67.5 34t76.5 10.5q36 0 56.5 -19t29.5 -47.5t9.5 -63.5t-2.5 -66q-2 -20 -8.5 -51.5t-11.5 -65t-6.5 -64t5.5 -46.5q2 -6 8 -13.5t14 -14t17 -9.5t18 0q14 6 18.5 13.5t3 15t-6 13t-8.5 7.5q-8 4 -11.5 10.5t1.5 8.5z" />
    <glyph glyph-name="O" unicode="O" 
d="M388 429q12 -15 20.5 -37.5t14.5 -48t9 -52t3 -49.5q0 -43 -13 -87.5t-39.5 -81t-66.5 -59.5t-94 -23q-27 0 -55.5 7.5t-54 21.5t-46.5 33t-33 43q-16 31 -23.5 67t-7.5 68q0 58 13 107.5t40.5 86t71 57t104.5 20.5q55 0 94 -20.5t63 -52.5zM335 85q14 27 23 67.5
t10.5 84t-5 84t-23.5 69.5q-23 38 -50.5 59.5t-62.5 21.5q-16 0 -25.5 -6t-14 -14.5t-6 -18t-1.5 -17.5q0 -14 13 -19.5t24 1.5q7 4 8.5 13.5t2.5 14.5q2 12 12 13t13 -15q1 -6 1.5 -15.5t-2 -19t-9 -18t-18.5 -13.5q-20 -9 -41 -3.5t-35.5 20.5t-18 38t11.5 49
q-25 -10 -40 -29.5t-23.5 -44.5t-11 -52t-2.5 -52q0 -40 6.5 -84t24.5 -82t50.5 -64.5t84.5 -30.5q32 0 60.5 16t43.5 47z" />
    <glyph glyph-name="P" unicode="P" horiz-adv-x="527" 
d="M387 94q12 32 21.5 69t9.5 76t-6 83t-25 74q-20 33 -54 52.5t-81 19.5q-16 0 -31 -5t-27 -13t-21 -17t-13 -17v-333q17 -34 50.5 -48t69 -11t66 21.5t41.5 48.5zM100 393q-1 20 -3 39.5t-13 25.5q-12 7 -24 1t-13 -23q0 -6 2.5 -10t6.5 -7.5t6.5 -6.5t2.5 -6
q-2 -13 -15 -8t-26 19q-14 16 -11.5 37.5t15.5 33.5q10 9 26.5 12.5t34.5 -0.5t35 -14.5t26 -29.5q4 4 13.5 11t23.5 14.5t33 13t42 5.5q55 0 96.5 -26t70.5 -68q26 -38 39 -90.5t13 -107.5q0 -47 -9.5 -85.5t-32.5 -70.5t-59.5 -47t-75.5 -15q-56 0 -92.5 16t-51.5 39v-40
v-51t-1 -55t-3 -52q-2 -29 -12 -55t-28 -44.5t-43.5 -26.5t-58.5 -1q-43 9 -60 34t-15.5 51.5t16.5 48t36 24.5q19 3 31.5 -1.5t19.5 -13t9.5 -18t1.5 -17.5q-2 -21 -9.5 -22t-16.5 16q-3 6 -10 4.5t-13 -7t-9.5 -13.5t0.5 -16q8 -16 19.5 -21t26.5 -5q12 1 22 6t17.5 17
t12 31t4.5 48q0 5 0.5 43t1 93t1 119t0.5 120.5v98.5v53z" />
    <glyph glyph-name="Q" unicode="Q" horiz-adv-x="539" 
d="M368 458q9 19 25.5 29.5t34 14.5t33.5 0.5t26 -12.5q13 -12 15.5 -33.5t-11.5 -37.5q-13 -14 -26 -19t-15 8q0 3 2.5 6t6.5 6.5t6.5 7.5t2.5 10q-1 17 -12 23.5t-23 -0.5q-11 -6 -13.5 -26t-4.5 -40q-1 -8 -1.5 -34t-1.5 -63.5t-2 -83.5t-1 -94.5t0.5 -95t2 -86
t4.5 -67.5t8 -39q7 -17 19 -28t26.5 -16t29.5 -3t29 13q10 8 16.5 20.5t8.5 26.5t-1 28t-11 25q-7 10 -17 14.5t-20 3.5t-17 -6t-7 -14q0 -4 -1.5 -10t-3.5 -11t-5.5 -7.5t-7.5 2.5q-11 12 -11 27.5t6 30t17 25t23 13.5q27 6 47.5 -4t34.5 -28t21 -39t7 -37q0 -19 -10 -40.5
t-25.5 -39.5t-36 -29.5t-42.5 -11.5q-40 1 -66 17t-40.5 42t-20.5 59.5t-7 69t0.5 70t1.5 63.5q-11 -12 -25 -23t-31.5 -19.5t-39.5 -13.5t-49 -5q-42 0 -74 18.5t-54.5 49t-34 69t-11.5 79.5q0 54 12.5 106.5t38.5 88.5q29 42 70 68t96 26q30 0 58 -11.5t51 -32.5zM259 27
q32 4 55.5 21.5t46.5 41.5v339q-4 4 -13 11t-21.5 14t-27.5 12t-30 5q-40 0 -76.5 -20.5t-56.5 -52.5q-18 -29 -25 -68t-7 -86q0 -37 7.5 -77.5t25 -73t47.5 -52t75 -14.5z" />
    <glyph glyph-name="R" unicode="R" horiz-adv-x="398" 
d="M361 459q21 -33 16 -66t-26 -52q-13 -11 -30 -17.5t-34.5 -6.5t-33.5 7t-27 23q-8 12 -8 26.5t7 27t19 21t28 8.5q14 0 20.5 -8t-1.5 -8q-7 0 -11.5 -5t-6 -11.5t0.5 -13t8 -9.5q14 -8 30 -2.5t21 28.5q3 11 1 22.5t-8 21t-16.5 16.5t-25.5 8q-39 3 -62.5 -22t-42.5 -64
q0 -8 0.5 -20.5t1 -39t1 -72t0.5 -120.5v-48.5t1 -71t3 -71t5 -48.5q-7 0 -17 13t-20.5 30.5t-19 36t-12.5 29.5v60q0 17 2 49t4.5 71t4 81t0 79.5t-7 66.5t-16.5 41q-13 14 -31 14.5t-26 -14.5q-7 -14 -1 -27.5t22 -13.5q7 0 5.5 -6.5t-8.5 -6.5q-15 -5 -27.5 -0.5
t-20.5 13.5t-11.5 22t-1.5 25q4 23 18.5 36.5t32.5 16.5q22 4 40.5 -2t33 -18t24.5 -28.5t13 -35.5q9 37 34.5 56.5t54.5 23t57.5 -8.5t43.5 -36z" />
    <glyph glyph-name="S" unicode="S" horiz-adv-x="347" 
d="M116 315q18 -15 55 -31t74.5 -36t67.5 -45t35 -56q4 -24 0.5 -42t-12.5 -32.5t-21.5 -26t-26.5 -21.5q-28 -21 -64 -31t-73 -11q-32 0 -58.5 8t-46 23t-30 36.5t-10.5 48.5t11.5 45.5t29 28.5t37.5 11t37 -6t28.5 -22.5t11.5 -39.5q0 -10 -5.5 -17t-13 -12t-14.5 -7.5
t-10 -3.5q-5 -2 -18 -0.5t-16 9.5q-2 4 1.5 6.5t8 4t9 4t6.5 6.5q3 6 -1 13.5t-11 12.5t-16.5 4.5t-18.5 -10.5q-12 -14 -8.5 -36t19.5 -38q8 -8 19.5 -15.5t26.5 -12.5t32.5 -6.5t37.5 2.5q24 4 42 15.5t30.5 28t18.5 36t6 39.5q-4 28 -34 50t-69 41t-79 34.5t-62 30.5
q-17 11 -28 30.5t-10.5 43.5t15.5 50t51 50q24 16 55.5 23.5t63.5 7.5q41 0 73 -18t44 -39q8 -14 12.5 -31.5t2 -35.5t-14 -34t-34.5 -26q-11 -5 -23.5 -4.5t-24 5t-21 13t-13.5 21.5q-6 18 0.5 35.5t14.5 19.5q11 3 13.5 -1.5t0.5 -9.5q-6 -14 6 -27q4 -5 11.5 -6t16 1.5
t15 8.5t9.5 15q6 22 -11 42.5t-40 30.5q-8 3 -28.5 6t-44.5 0t-46.5 -15.5t-33.5 -39.5q-8 -19 -5.5 -33.5t10 -26t18.5 -20.5t20 -16z" />
    <glyph glyph-name="T" unicode="T" horiz-adv-x="391" 
d="M347 180q13 -11 23 -26.5t14.5 -33.5t2.5 -37t-12 -35q-10 -15 -32 -33.5t-54 -18.5q-20 0 -36 1.5t-29 6t-24.5 12.5t-23.5 20q-16 16 -24.5 44t-12.5 56t-4.5 51.5t-0.5 31.5v161v39.5t-0.5 56.5t-2 64.5t-4.5 64.5t-8 55.5t-13 38.5q-11 19 -28.5 29.5t-31.5 3.5
q-20 -11 -13 -27t31 -24q4 -4 3 -7t-5 -5t-9 -2.5t-9 0.5q-32 8 -43.5 31.5t-6 46.5t27.5 37.5t58 4.5q30 -8 48.5 -26.5t29.5 -43t16 -55t7 -62.5q1 -12 2 -29.5t2 -34.5q1 -19 2 -39h86h53q0 -8 -3 -12t-8 -9q-6 -6 -21 -8.5t-31 -2.5q-17 0 -38.5 5.5t-37.5 5.5v-300
q-1 -31 1.5 -57t13 -45t30 -29.5t51.5 -10.5q12 0 25.5 7.5t24 19.5t13.5 27.5t-6 31.5q-11 19 -39 19q-9 0 -13 -6.5t-4 -14.5t4.5 -14.5t12.5 -6.5q7 0 1 -7.5t-21 -5.5q-22 3 -36.5 20.5t-14.5 40.5q0 16 13 28t31.5 17t38.5 3t34 -13z" />
    <glyph glyph-name="U" unicode="U" horiz-adv-x="526" 
d="M34 393q-13 -5 -29 4.5t-26 26.5t-9 37t23 37q21 16 45.5 15t46 -13.5t36.5 -34t18 -48.5t-1.5 -66.5t-8.5 -82t-5 -84t10 -73t36.5 -48.5t73.5 -10q19 4 42.5 17.5t43.5 27.5q24 17 47 37q-1 35 -1 63.5v55t0.5 53t0.5 56.5v248q8 -6 19 -17.5t20.5 -26t16 -32.5
t6.5 -37q0 -64 -4.5 -127.5t-4.5 -131.5q0 -31 0.5 -61.5t3.5 -57t9 -47t18 -32.5q7 -8 22.5 -13t29.5 6q8 7 9 14.5t-1.5 13.5t-7 10t-7.5 4q-8 0 -11.5 9t6.5 11q14 1 25.5 -5t20 -16.5t12 -24t1.5 -26.5q-4 -20 -22.5 -34t-38.5 -15q-34 -1 -55.5 8t-35 26t-20.5 41
t-11 54q-3 -3 -23 -21t-50 -37.5t-67.5 -34t-76.5 -10.5q-36 0 -56.5 19t-29.5 47.5t-9.5 63t2.5 66.5q2 20 8.5 51.5t11.5 65t6.5 63.5t-5.5 47q-2 6 -8 13.5t-14 14t-17 9.5t-18 0q-14 -6 -18.5 -13.5t-3 -15t6 -13.5t8.5 -7q8 -4 11.5 -10.5t-1.5 -8.5z" />
    <glyph glyph-name="V" unicode="V" horiz-adv-x="526" 
d="M413 396q6 25 20.5 51.5t31.5 49.5t34 41t28 26q-4 -36 -17.5 -81.5t-31 -93t-36 -91t-33.5 -74.5q-27 -58 -51 -120t-43 -134q-33 8 -56.5 29t-39.5 45q-20 40 -30.5 91.5t-20.5 104.5t-24 103t-41 88q-10 14 -23.5 20t-25.5 4.5t-20 -10t-6 -24.5q3 -13 10.5 -16
t15 -2.5t12 0.5t2.5 -6q-4 -11 -16 -15.5t-29 -2.5q-13 1 -22.5 11t-14 23.5t-4 28.5t8.5 27q9 16 29.5 24.5t44.5 7t48.5 -14t41.5 -38.5q12 -18 20.5 -41t15.5 -48.5t13.5 -51.5t14.5 -50q16 -57 34.5 -112t50.5 -111q16 55 32 107t30.5 98t26.5 85.5t20 71.5z" />
    <glyph glyph-name="W" unicode="W" horiz-adv-x="712" 
d="M531 417q-36 -1 -55 23.5t-10 69.5q4 23 17.5 36t27.5 19.5t26.5 8t15.5 1.5q18 1 36 -7t33 -23t27.5 -35t20.5 -42q11 -33 21 -80t14 -99t0 -103.5t-21 -93.5t-48.5 -68.5t-82.5 -28.5q-18 -1 -40.5 2.5t-43 12t-36.5 21.5t-22 31q-4 -18 -15.5 -30.5t-28 -20.5
t-35.5 -12t-37 -4q-11 0 -26.5 0.5t-33.5 4t-36.5 11.5t-36.5 22q-14 15 -23.5 30t-15 34t-7.5 41.5t-2 52.5q0 34 1.5 76t-0.5 80.5t-10.5 68.5t-29.5 41q-6 3 -20 1t-20 -17q-5 -13 4.5 -22t18.5 -10q5 0 6 -3t-1 -6.5t-6 -6.5t-7 -3q-29 -3 -42.5 13.5t-12.5 38.5
t16.5 40.5t45.5 18.5q31 0 53.5 -13.5t36 -37t19.5 -54.5t5 -66q-1 -20 -2 -50.5t0.5 -65t7 -69t18.5 -62t35 -44t56 -15.5q31 1 50 12.5t30 30t16.5 42t8.5 49.5q0 29 -2 56l-4 54t-2 55t3 58q32 -34 39 -61t4.5 -57t-5 -68t9.5 -94q4 -19 16.5 -33t29.5 -23t36 -13t36 -2
q38 4 60.5 46.5t30.5 110.5q2 16 3.5 47.5t0.5 70t-5.5 79.5t-15 74t-28 53.5t-44.5 19.5q-17 -1 -25.5 -12.5t-10.5 -20.5q-1 -7 2.5 -13.5t9 -10t11.5 -4.5t9 4q6 10 10.5 13.5t7 2t4 -6t1.5 -11.5t-1.5 -16t-6.5 -17.5t-13.5 -15t-20.5 -6.5z" />
    <glyph glyph-name="X" unicode="X" horiz-adv-x="465" 
d="M374 114q23 13 39.5 9t27 -16t15 -27.5t2.5 -26.5q-5 -32 -25.5 -44.5t-51.5 -12.5q-15 0 -31.5 7t-32.5 18t-29.5 24t-22.5 25q-9 11 -18 26.5t-17.5 33t-15 35.5t-10.5 33q-23 -23 -38 -50.5t-29.5 -54t-31 -50.5t-43.5 -40q-4 -4 -12.5 -7.5t-18.5 -6.5t-19 -4.5
t-13 -1.5q20 27 52.5 69t64.5 82q37 47 78 96q-6 22 -11 48.5t-12.5 54.5t-19 55.5t-31.5 51.5q-14 17 -30 19.5t-28 -3t-18 -15.5t-1 -17q10 -14 17.5 -18.5t16.5 0.5q7 3 7 -5t-10 -13q-14 -8 -28 -9t-29 13q-14 12 -21.5 32.5t10.5 47.5q16 24 37.5 29.5t44 0.5t43 -18.5
t32.5 -28.5q24 -29 44 -80t34 -109q7 7 17.5 20t21 28t21.5 31.5t20 30.5q13 21 21.5 38.5t13.5 31t8.5 23.5t7.5 18q4 12 16 24.5t25.5 23t25.5 18.5t17 10q2 -18 -9 -47t-27 -59t-32.5 -55t-25.5 -36q-7 -8 -20.5 -24t-29.5 -34.5t-32 -36t-27 -28.5q15 -48 32.5 -91
t46.5 -86q11 -16 27 -21t29.5 -1.5t20.5 13.5t1 25q-1 8 -10.5 13t-19.5 2q-8 -2 -12.5 4.5t6.5 12.5z" />
    <glyph glyph-name="Y" unicode="Y" horiz-adv-x="616" 
d="M449 426q5 17 22 41t36 45q21 25 47 51q-7 -67 -32 -136t-56 -138.5t-61.5 -139.5t-48.5 -139q-13 -50 -32 -91t-41 -73t-44.5 -54.5t-41.5 -34.5q-43 -26 -78 -27.5t-61.5 11.5t-44 35t-25.5 45q-8 22 -4.5 45t15 43t29.5 33.5t40 15.5q18 2 32.5 -6.5t24.5 -22
t13.5 -29.5t0.5 -28q-6 -14 -16 -15t-10 6q0 20 -10 34.5t-34 5.5q-14 -5 -22.5 -21t-9 -35.5t10 -38.5t35.5 -30q32 -14 59 -6t49 28.5t39.5 50.5t30 58.5t20 52.5t11.5 34q-16 15 -28.5 30.5t-20.5 30.5q-20 40 -31.5 96.5t-23 113.5t-27.5 106t-44 75q-11 8 -22.5 8.5
t-20.5 -5t-13.5 -15t-0.5 -21.5q3 -8 8 -11t9.5 -3t9.5 1.5t8 2.5q4 1 6 -3t-2 -9.5t-13.5 -10.5t-27.5 -4q-15 1 -25.5 8.5t-16 19.5t-6 26t5.5 27q9 21 36 34.5t65 5.5q23 -5 41 -24t32.5 -46t25.5 -59t19.5 -62.5t15 -56t11.5 -39.5q13 -53 30.5 -93.5t41.5 -84.5
q15 56 32 111q14 48 30.5 101.5t32.5 98.5q3 8 4 14t2.5 14.5t4.5 20.5t9 32z" />
    <glyph glyph-name="Z" unicode="Z" horiz-adv-x="413" 
d="M278 105q-5 15 -2.5 28t9.5 23t17 16.5t20 8.5q13 3 28.5 0t28 -12.5t21.5 -26.5t11 -42q2 -32 -7 -52t-28 -31.5t-47 -16.5t-64 -5q-66 -1 -130.5 3t-120.5 4q24 59 56 114.5t67 109.5t71 107t68 108l10 21q-26 5 -54.5 9t-56 5t-50.5 -2t-38 -11q-18 -10 -24.5 -22.5
t-6 -24.5t6 -22t12.5 -14q11 -7 22.5 -3.5t11.5 19.5q0 8 -3.5 16t5.5 13q7 4 13 -0.5t10.5 -13t5.5 -20.5t-3 -23q-3 -9 -11 -19t-20 -16t-28.5 -6t-36.5 11q-13 7 -22.5 18.5t-14 26.5t-2 34t13.5 40q10 18 23 27.5t32.5 13.5t46 4.5t63.5 0.5q42 0 86 0.5t102 0.5
q-12 -30 -29.5 -65.5t-38 -73t-43 -76t-43.5 -74.5q-51 -84 -107 -171q24 -8 58 -12t68 -4t63 5t43 16q17 13 21.5 31.5t-3.5 32.5q-5 9 -12.5 14t-14.5 5.5t-13 -3t-9 -10.5q-3 -8 -2.5 -12t2 -7t2 -5.5t-2.5 -6.5q-6 -8 -16 -1t-14 18z" />
  </font>
</defs>
</svg>
